<svg xmlns="http://www.w3.org/2000/svg" xmlns:xlink="http://www.w3.org/1999/xlink" id="processonSvg1000" viewBox="28.0 58.0 1219.0 743.25" width="1219.0" height="743.25"><defs id="ProcessOnDefs1001"><marker id="ProcessOnMarker1044" markerUnits="userSpaceOnUse" orient="auto" markerWidth="16.23606797749979" markerHeight="10.550836550532098" viewBox="-1.0 -1.3763819204711736 16.23606797749979 10.550836550532098" refX="-1.0" refY="3.8990363547948754"><path id="ProcessOnPath1045" d="M12.0 3.8990363547948754L0.0 7.798072709589751V0.0Z" stroke="#323232" stroke-width="2.0" fill="#323232" transform="matrix(1.0,0.0,0.0,1.0,0.0,0.0)"/></marker><marker id="ProcessOnMarker1048" markerUnits="userSpaceOnUse" orient="auto" markerWidth="16.23606797749979" markerHeight="10.550836550532098" viewBox="-1.0 -1.3763819204711736 16.23606797749979 10.550836550532098" refX="-1.0" refY="3.8990363547948754"><path id="ProcessOnPath1049" d="M12.0 3.8990363547948754L0.0 7.798072709589751V0.0Z" stroke="#323232" stroke-width="2.0" fill="#323232" transform="matrix(1.0,0.0,0.0,1.0,0.0,0.0)"/></marker></defs><g id="ProcessOnG1002"><path id="ProcessOnPath1003" d="M28.0 58.0H1247.0V801.25H28.0V58.0Z" fill="none"/><g id="ProcessOnG1004"><g id="ProcessOnG1005" transform="matrix(1.0,0.0,0.0,1.0,307.0,196.0)" opacity="1.0"><path id="ProcessOnPath1006" d="M0.0 4.0Q0.0 0.0 4.0 0.0L137.0 0.0Q141.0 0.0 141.0 4.0L141.0 46.0Q141.0 50.0 137.0 50.0L4.0 50.0Q0.0 50.0 0.0 46.0Z" stroke="#323232" stroke-width="2.0" stroke-dasharray="none" opacity="1.0" fill="#ffffff"/><g id="ProcessOnG1007" transform="matrix(1.0,0.0,0.0,1.0,10.0,8.75)"><text id="ProcessOnText1008" fill="#000000" font-size="13" x="0.0" y="13.325" font-family="微软雅黑" font-weight="normal" font-style="normal" text-decoration="none" family="微软雅黑" text-anchor="start" size="13">People只有一个prot</text><text id="ProcessOnText1009" fill="#000000" font-size="13" x="0.0" y="29.575" font-family="微软雅黑" font-weight="normal" font-style="normal" text-decoration="none" family="微软雅黑" text-anchor="start" size="13">otype属性</text></g></g><g id="ProcessOnG1010" transform="matrix(1.0,0.0,0.0,1.0,307.0,246.0)" opacity="1.0"><path id="ProcessOnPath1011" d="M0.0 4.0Q0.0 0.0 4.0 0.0L137.0 0.0Q141.0 0.0 141.0 4.0L141.0 40.0Q141.0 44.0 137.0 44.0L4.0 44.0Q0.0 44.0 0.0 40.0Z" stroke="#323232" stroke-width="2.0" stroke-dasharray="none" opacity="1.0" fill="#ffffff"/><g id="ProcessOnG1012" transform="matrix(1.0,0.0,0.0,1.0,10.0,13.875)"><text id="ProcessOnText1013" fill="#000000" font-size="13" x="59.5" y="13.325" font-family="微软雅黑" font-weight="normal" font-style="normal" text-decoration="none" family="微软雅黑" text-anchor="middle" size="13">prototype</text></g></g><g id="ProcessOnG1014" transform="matrix(1.0,0.0,0.0,1.0,612.0,82.0)" opacity="1.0"><path id="ProcessOnPath1015" d="M0.0 4.0Q0.0 0.0 4.0 0.0L135.0 0.0Q139.0 0.0 139.0 4.0L139.0 41.0Q139.0 45.0 135.0 45.0L4.0 45.0Q0.0 45.0 0.0 41.0Z" stroke="#323232" stroke-width="2.0" stroke-dasharray="none" opacity="1.0" fill="#ffffff"/><g id="ProcessOnG1016" transform="matrix(1.0,0.0,0.0,1.0,10.0,14.375)"><text id="ProcessOnText1017" fill="#000000" font-size="13" x="58.5" y="13.325" font-family="微软雅黑" font-weight="normal" font-style="normal" text-decoration="none" family="微软雅黑" text-anchor="middle" size="13">People.prototype</text></g></g><g id="ProcessOnG1018" transform="matrix(1.0,0.0,0.0,1.0,612.0,127.0)" opacity="1.0"><path id="ProcessOnPath1019" d="M0.0 4.0Q0.0 0.0 4.0 0.0L135.0 0.0Q139.0 0.0 139.0 4.0L139.0 41.0Q139.0 45.0 135.0 45.0L4.0 45.0Q0.0 45.0 0.0 41.0Z" stroke="#323232" stroke-width="2.0" stroke-dasharray="none" opacity="1.0" fill="#ffffff"/><g id="ProcessOnG1020" transform="matrix(1.0,0.0,0.0,1.0,10.0,14.375)"><text id="ProcessOnText1021" fill="#000000" font-size="13" x="58.5" y="13.325" font-family="微软雅黑" font-weight="normal" font-style="normal" text-decoration="none" family="微软雅黑" text-anchor="middle" size="13">sayName:func</text></g></g><g id="ProcessOnG1022" transform="matrix(1.0,0.0,0.0,1.0,612.0,219.0)" opacity="1.0"><path id="ProcessOnPath1023" d="M0.0 4.0Q0.0 0.0 4.0 0.0L299.0 0.0Q303.0 0.0 303.0 4.0L303.0 67.0Q303.0 71.0 299.0 71.0L4.0 71.0Q0.0 71.0 0.0 67.0Z" stroke="#323232" stroke-width="2.0" stroke-dasharray="none" opacity="1.0" fill="#ffffff"/><g id="ProcessOnG1024" transform="matrix(1.0,0.0,0.0,1.0,10.0,11.125)"><text id="ProcessOnText1025" fill="#000000" font-size="13" x="0.0" y="13.325" font-family="微软雅黑" font-weight="bold" font-style="normal" text-decoration="none" family="微软雅黑" text-anchor="start" size="13">constructor:func默认属性</text><text id="ProcessOnText1026" fill="#000000" font-size="13" x="0.0" y="29.575" font-family="微软雅黑" font-weight="bold" font-style="normal" text-decoration="none" family="微软雅黑" text-anchor="start" size="13"></text><text id="ProcessOnText1027" fill="#000000" font-size="13" x="0.0" y="45.825" font-family="微软雅黑" font-weight="bold" font-style="normal" text-decoration="none" family="微软雅黑" text-anchor="start" size="13">People.prototype.constructor===People</text></g></g><g id="ProcessOnG1028" transform="matrix(1.0,0.0,0.0,1.0,48.0,305.0)" opacity="1.0"><path id="ProcessOnPath1029" d="M0.0 4.0Q0.0 0.0 4.0 0.0L135.0 0.0Q139.0 0.0 139.0 4.0L139.0 41.0Q139.0 45.0 135.0 45.0L4.0 45.0Q0.0 45.0 0.0 41.0Z" stroke="#323232" stroke-width="2.0" stroke-dasharray="none" opacity="1.0" fill="#ffffff"/><g id="ProcessOnG1030" transform="matrix(1.0,0.0,0.0,1.0,10.0,14.375)"><text id="ProcessOnText1031" fill="#000000" font-size="13" x="58.5" y="13.325" font-family="微软雅黑" font-weight="bold" font-style="normal" text-decoration="none" family="微软雅黑" text-anchor="middle" size="13">p1</text></g></g><g id="ProcessOnG1032" transform="matrix(1.0,0.0,0.0,1.0,48.0,350.0)" opacity="1.0"><path id="ProcessOnPath1033" d="M0.0 4.0Q0.0 0.0 4.0 0.0L135.0 0.0Q139.0 0.0 139.0 4.0L139.0 41.0Q139.0 45.0 135.0 45.0L4.0 45.0Q0.0 45.0 0.0 41.0Z" stroke="#323232" stroke-width="2.0" stroke-dasharray="none" opacity="1.0" fill="#ffffff"/><g id="ProcessOnG1034" transform="matrix(1.0,0.0,0.0,1.0,10.0,14.375)"><text id="ProcessOnText1035" fill="#000000" font-size="13" x="58.5" y="13.325" font-family="微软雅黑" font-weight="bold" font-style="normal" text-decoration="none" family="微软雅黑" text-anchor="middle" size="13">.__proto__</text></g></g><g id="ProcessOnG1036" transform="matrix(1.0,0.0,0.0,1.0,48.0,395.0)" opacity="1.0"><path id="ProcessOnPath1037" d="M0.0 4.0Q0.0 0.0 4.0 0.0L135.0 0.0Q139.0 0.0 139.0 4.0L139.0 41.0Q139.0 45.0 135.0 45.0L4.0 45.0Q0.0 45.0 0.0 41.0Z" stroke="#323232" stroke-width="2.0" stroke-dasharray="none" opacity="1.0" fill="#ffffff"/><g id="ProcessOnG1038" transform="matrix(1.0,0.0,0.0,1.0,10.0,-1.875)"><text id="ProcessOnText1039" fill="#000000" font-size="13" x="58.5" y="13.325" font-family="微软雅黑" font-weight="bold" font-style="normal" text-decoration="none" family="微软雅黑" text-anchor="middle" size="13">name:"小七"，age:</text><text id="ProcessOnText1040" fill="#000000" font-size="13" x="58.5" y="29.575" font-family="微软雅黑" font-weight="bold" font-style="normal" text-decoration="none" family="微软雅黑" text-anchor="middle" size="13">18;执行的过程中赋</text><text id="ProcessOnText1041" fill="#000000" font-size="13" x="58.5" y="45.825" font-family="微软雅黑" font-weight="bold" font-style="normal" text-decoration="none" family="微软雅黑" text-anchor="middle" size="13">值</text></g></g><g id="ProcessOnG1042"><path id="ProcessOnPath1043" d="M612.0 254.5L530.0 254.5L530.0 221.0L463.2360679774998 221.0" stroke="#323232" stroke-width="2.0" stroke-dasharray="none" fill="none" marker-end="url(#ProcessOnMarker1044)"/></g><g id="ProcessOnG1046"><path id="ProcessOnPath1047" d="M187.0 372.5L248.5 372.5L248.5 104.5L596.7639320225002 104.5" stroke="#323232" stroke-width="2.0" stroke-dasharray="none" fill="none" marker-end="url(#ProcessOnMarker1048)"/></g><g id="ProcessOnG1050" transform="matrix(1.0,0.0,0.0,1.0,231.0,508.0)" opacity="1.0"><path id="ProcessOnPath1051" d="M0.0 0.0L310.0 0.0L310.0 244.0L0.0 244.0Z" stroke="#323232" stroke-width="2.0" stroke-dasharray="none" opacity="1.0" fill="#ffffff"/><g id="ProcessOnG1052" transform="matrix(1.0,0.0,0.0,1.0,10.0,0.0)"><text id="ProcessOnText1053" fill="#000000" font-size="13" x="0.0" y="13.325" font-family="微软雅黑" font-weight="normal" font-style="normal" text-decoration="none" family="微软雅黑" text-anchor="start" size="13"></text><text id="ProcessOnText1054" fill="#000000" font-size="13" x="0.0" y="29.575" font-family="微软雅黑" font-weight="normal" font-style="normal" text-decoration="none" family="微软雅黑" text-anchor="start" size="13">function People (name，age){</text><text id="ProcessOnText1055" fill="#000000" font-size="13" x="0.0" y="45.825" font-family="微软雅黑" font-weight="normal" font-style="normal" text-decoration="none" family="微软雅黑" text-anchor="start" size="13">      this.name = name;</text><text id="ProcessOnText1056" fill="#000000" font-size="13" x="0.0" y="62.075" font-family="微软雅黑" font-weight="normal" font-style="normal" text-decoration="none" family="微软雅黑" text-anchor="start" size="13">      this.age=age;</text><text id="ProcessOnText1057" fill="#000000" font-size="13" x="0.0" y="78.325" font-family="微软雅黑" font-weight="normal" font-style="normal" text-decoration="none" family="微软雅黑" text-anchor="start" size="13">}</text><text id="ProcessOnText1058" fill="#000000" font-size="13" x="0.0" y="94.575" font-family="微软雅黑" font-weight="normal" font-style="normal" text-decoration="none" family="微软雅黑" text-anchor="start" size="13"></text><text id="ProcessOnText1059" fill="#000000" font-size="13" x="0.0" y="110.825" font-family="微软雅黑" font-weight="normal" font-style="normal" text-decoration="none" family="微软雅黑" text-anchor="start" size="13">People.prototype.sayName= function(){</text><text id="ProcessOnText1060" fill="#000000" font-size="13" x="0.0" y="127.075" font-family="微软雅黑" font-weight="normal" font-style="normal" text-decoration="none" family="微软雅黑" text-anchor="start" size="13">     console.log(this.name);  </text><text id="ProcessOnText1061" fill="#000000" font-size="13" x="0.0" y="143.325" font-family="微软雅黑" font-weight="normal" font-style="normal" text-decoration="none" family="微软雅黑" text-anchor="start" size="13">}</text><text id="ProcessOnText1062" fill="#000000" font-size="13" x="0.0" y="159.575" font-family="微软雅黑" font-weight="normal" font-style="normal" text-decoration="none" family="微软雅黑" text-anchor="start" size="13">People.prototype.sayName= function(){</text><text id="ProcessOnText1063" fill="#000000" font-size="13" x="0.0" y="175.825" font-family="微软雅黑" font-weight="normal" font-style="normal" text-decoration="none" family="微软雅黑" text-anchor="start" size="13">     console.log(this.name);  </text><text id="ProcessOnText1064" fill="#000000" font-size="13" x="0.0" y="192.075" font-family="微软雅黑" font-weight="normal" font-style="normal" text-decoration="none" family="微软雅黑" text-anchor="start" size="13">}</text><text id="ProcessOnText1065" fill="#000000" font-size="13" x="0.0" y="208.325" font-family="微软雅黑" font-weight="normal" font-style="normal" text-decoration="none" family="微软雅黑" text-anchor="start" size="13">var p1=new People('小七',18)</text><text id="ProcessOnText1066" fill="#000000" font-size="13" x="0.0" y="224.575" font-family="微软雅黑" font-weight="normal" font-style="normal" text-decoration="none" family="微软雅黑" text-anchor="start" size="13">p1.sayName()</text><text id="ProcessOnText1067" fill="#000000" font-size="13" x="0.0" y="240.825" font-family="微软雅黑" font-weight="normal" font-style="normal" text-decoration="none" family="微软雅黑" text-anchor="start" size="13"></text></g></g><g id="ProcessOnG1068" transform="matrix(1.0,0.0,0.0,1.0,682.0,505.0)" opacity="1.0"><path id="ProcessOnPath1069" d="M0.0 0.0L545.0 0.0L545.0 257.0L0.0 257.0Z" stroke="#323232" stroke-width="2.0" stroke-dasharray="none" opacity="1.0" fill="#ffffff"/><g id="ProcessOnG1070" transform="matrix(1.0,0.0,0.0,1.0,10.0,0.0)"><text id="ProcessOnText1071" fill="#000000" font-size="13" x="0.0" y="13.325" font-family="微软雅黑" font-weight="normal" font-style="normal" text-decoration="none" family="微软雅黑" text-anchor="start" size="13">1、People是一个函数（里面的this.name是它创建对象的属性）</text><text id="ProcessOnText1072" fill="#000000" font-size="13" x="0.0" y="29.575" font-family="微软雅黑" font-weight="normal" font-style="normal" text-decoration="none" family="微软雅黑" text-anchor="start" size="13">2、People有一个prototype属性，它对应的值是一个对象sayName()</text><text id="ProcessOnText1073" fill="#000000" font-size="13" x="0.0" y="45.825" font-family="微软雅黑" font-weight="normal" font-style="normal" text-decoration="none" family="微软雅黑" text-anchor="start" size="13"></text><text id="ProcessOnText1074" fill="#000000" font-size="13" x="0.0" y="62.075" font-family="微软雅黑" font-weight="normal" font-style="normal" text-decoration="none" family="微软雅黑" text-anchor="start" size="13"></text><text id="ProcessOnText1075" fill="#000000" font-size="13" x="0.0" y="78.325" font-family="微软雅黑" font-weight="normal" font-style="normal" text-decoration="none" family="微软雅黑" text-anchor="start" size="13">1、当去new People的时候，会创建一个__proto__属性，指向函数的原型；</text><text id="ProcessOnText1076" fill="#000000" font-size="13" x="0.0" y="94.575" font-family="微软雅黑" font-weight="normal" font-style="normal" text-decoration="none" family="微软雅黑" text-anchor="start" size="13">p1.__proto__===People.prototype(空对象的原型指向函数的原型)</text><text id="ProcessOnText1077" fill="#000000" font-size="13" x="0.0" y="110.825" font-family="微软雅黑" font-weight="normal" font-style="normal" text-decoration="none" family="微软雅黑" text-anchor="start" size="13"></text><text id="ProcessOnText1078" fill="#000000" font-size="13" x="0.0" y="127.075" font-family="微软雅黑" font-weight="normal" font-style="normal" text-decoration="none" family="微软雅黑" text-anchor="start" size="13">2、执行这个对象，当遇到this，this就指向当前对象给当前对象赋值</text><text id="ProcessOnText1079" fill="#000000" font-size="13" x="0.0" y="143.325" font-family="微软雅黑" font-weight="normal" font-style="normal" text-decoration="none" family="微软雅黑" text-anchor="start" size="13"></text><text id="ProcessOnText1080" fill="#000000" font-size="13" x="0.0" y="159.575" font-family="微软雅黑" font-weight="normal" font-style="normal" text-decoration="none" family="微软雅黑" text-anchor="start" size="13">3、执行p1.sayName()的时候会现在自身查找，找不到就去__proto__上去找；执行的过程</text><text id="ProcessOnText1081" fill="#000000" font-size="13" x="0.0" y="175.825" font-family="微软雅黑" font-weight="normal" font-style="normal" text-decoration="none" family="微软雅黑" text-anchor="start" size="13">中会输出this.name会现在自身查找name</text><text id="ProcessOnText1082" fill="#000000" font-size="13" x="0.0" y="192.075" font-family="微软雅黑" font-weight="normal" font-style="normal" text-decoration="none" family="微软雅黑" text-anchor="start" size="13"></text><text id="ProcessOnText1083" fill="#000000" font-size="13" x="0.0" y="208.325" font-family="微软雅黑" font-weight="normal" font-style="normal" text-decoration="none" family="微软雅黑" text-anchor="start" size="13">4、p1.constructor===People p1是由People构造的</text><text id="ProcessOnText1084" fill="#000000" font-size="13" x="0.0" y="224.575" font-family="微软雅黑" font-weight="normal" font-style="normal" text-decoration="none" family="微软雅黑" text-anchor="start" size="13"></text><text id="ProcessOnText1085" fill="#000000" font-size="13" x="0.0" y="240.825" font-family="微软雅黑" font-weight="normal" font-style="normal" text-decoration="none" family="微软雅黑" text-anchor="start" size="13"></text><text id="ProcessOnText1086" fill="#000000" font-size="13" x="0.0" y="257.075" font-family="微软雅黑" font-weight="normal" font-style="normal" text-decoration="none" family="微软雅黑" text-anchor="start" size="13"></text><text id="ProcessOnText1087" fill="#000000" font-size="13" x="0.0" y="273.325" font-family="微软雅黑" font-weight="normal" font-style="normal" text-decoration="none" family="微软雅黑" text-anchor="start" size="13"></text></g></g><g id="ProcessOnG1088" transform="matrix(1.0,0.0,0.0,1.0,541.0,556.0)" opacity="1.0"><path id="ProcessOnPath1089" d="M0.0 20.790000000000003L109.5 20.790000000000003L109.5 0.0L141.0 31.5L109.5 63.0L109.5 42.21L0.0 42.21L0.0 20.790000000000003Z" stroke="#323232" stroke-width="2.0" stroke-dasharray="none" opacity="1.0" fill="#ffffff"/></g><g id="ProcessOnG1090" transform="matrix(1.0,0.0,0.0,1.0,522.0,196.0)" opacity="1.0"><path id="ProcessOnPath1091" d="M0.0 11.5C0.0 -3.8333333333333335 25.0 -3.8333333333333335 25.0 11.5Q24.5 22.54 12.5 23.0Q8.333333333333334 23.0 4.166666666666667 20.7L0.0 23.0L2.9250000000000003 19.711Q0.0 16.099999999999998 0.0 11.5" stroke="#323232" stroke-width="2.0" stroke-dasharray="none" opacity="1.0" fill="#ffffff"/><g id="ProcessOnG1092" transform="matrix(1.0,0.0,0.0,1.0,10.0,3.375)"><text id="ProcessOnText1093" fill="#000000" font-size="13" x="1.5" y="13.325" font-family="微软雅黑" font-weight="normal" font-style="normal" text-decoration="none" family="微软雅黑" text-anchor="middle" size="13">1</text></g></g><g id="ProcessOnG1094" transform="matrix(1.0,0.0,0.0,1.0,324.0,78.0)" opacity="1.0"><path id="ProcessOnPath1095" d="M0.0 11.5C0.0 -3.8333333333333335 33.0 -3.8333333333333335 33.0 11.5Q32.339999999999996 22.54 16.5 23.0Q11.0 23.0 5.5 20.7L0.0 23.0L3.861 19.711Q0.0 16.099999999999998 0.0 11.5" stroke="#323232" stroke-width="2.0" stroke-dasharray="none" opacity="1.0" fill="#ffffff"/><g id="ProcessOnG1096" transform="matrix(1.0,0.0,0.0,1.0,10.0,3.375)"><text id="ProcessOnText1097" fill="#000000" font-size="13" x="5.5" y="13.325" font-family="微软雅黑" font-weight="normal" font-style="normal" text-decoration="none" family="微软雅黑" text-anchor="middle" size="13">2</text></g></g><g id="ProcessOnG1098" transform="matrix(1.0,0.0,0.0,1.0,612.0,174.0)" opacity="1.0"><path id="ProcessOnPath1099" d="M0.0 4.0Q0.0 0.0 4.0 0.0L135.0 0.0Q139.0 0.0 139.0 4.0L139.0 41.0Q139.0 45.0 135.0 45.0L4.0 45.0Q0.0 45.0 0.0 41.0Z" stroke="#323232" stroke-width="2.0" stroke-dasharray="none" opacity="1.0" fill="#ffffff"/><g id="ProcessOnG1100" transform="matrix(1.0,0.0,0.0,1.0,10.0,14.375)"><text id="ProcessOnText1101" fill="#000000" font-size="13" x="58.5" y="13.325" font-family="微软雅黑" font-weight="normal" font-style="normal" text-decoration="none" family="微软雅黑" text-anchor="middle" size="13">sayAge:func</text></g></g></g></g></svg>